PathFileType	4	(X/Y/Z)	/Users/itak/Documents/Research/Walk-IL/dataset/trc/00271_00010.trc
DataRate	CameraRate	NumFrames	NumMarkers	Units	OrigDataRate	OrigDataStartFrame	OrigNumFrames
100.000000	100.000000	4	54	mm	100.000000	141	565
Frame#	Time	LPSI			L3			STRN			T10			C7			CLAV			RBAK			LBAK			LSHO			LUPA			LAEL			LAOL			LWTS			LWPS			LFRA			LHPS			LHTS			RSHO			RUPA			RAEL			RAOL			RWTS			RWPS			RFRA			RIFD			RHTS			RHPS			RBHD			LFHD			RFHD			LBHD			LHIP			RHIP			RASI			LKNE			LANK			LTIP			LTOE			LMT1			LMT5			LHEE			RKNE			RTHI			RANK			RTIP			RTOE			RMT1			RMT5			RHEE			LIFD			RPSI			LTHI			LASI			*53			
		X1	Y1	Z1	X2	Y2	Z2	X3	Y3	Z3	X4	Y4	Z4	X5	Y5	Z5	X6	Y6	Z6	X7	Y7	Z7	X8	Y8	Z8	X9	Y9	Z9	X10	Y10	Z10	X11	Y11	Z11	X12	Y12	Z12	X13	Y13	Z13	X14	Y14	Z14	X15	Y15	Z15	X16	Y16	Z16	X17	Y17	Z17	X18	Y18	Z18	X19	Y19	Z19	X20	Y20	Z20	X21	Y21	Z21	X22	Y22	Z22	X23	Y23	Z23	X24	Y24	Z24	X25	Y25	Z25	X26	Y26	Z26	X27	Y27	Z27	X28	Y28	Z28	X29	Y29	Z29	X30	Y30	Z30	X31	Y31	Z31	X32	Y32	Z32	X33	Y33	Z33	X34	Y34	Z34	X35	Y35	Z35	X36	Y36	Z36	X37	Y37	Z37	X38	Y38	Z38	X39	Y39	Z39	X40	Y40	Z40	X41	Y41	Z41	X42	Y42	Z42	X43	Y43	Z43	X44	Y44	Z44	X45	Y45	Z45	X46	Y46	Z46	X47	Y47	Z47	X48	Y48	Z48	X49	Y49	Z49	X50	Y50	Z50	X51	Y51	Z51	X52	Y52	Z52	X53	Y53	Z53	X54	Y54	Z54	

142	1.41	731.058837890625	972.565185546875	-69.52658081054688	747.9284057617188	1046.801879882812	14.53416347503662	997.5279541015625	1225.850830078125	29.35865020751953	731.7201538085938	1161.73193359375	14.34716796875	775.9271240234375	1406.856689453125	6.882148742675781	933.4981079101562	1326.022216796875	25.37172508239746	723.2222900390625	1265.533569335938	74.34394836425781	769.8453369140625	1374.04833984375	-98.58037567138672	864.2294921875	1381.919067382812	-140.5940856933594	838.7703857421875	1270.401733398438	-222.0150756835938	826.4219970703125	1069.427978515625	-247.1415252685547	758.9343872070312	1058.497924804688	-192.5365142822266	881.8807373046875	840.5107421875	-208.9484252929688	850.8034057617188	836.0265502929688	-274.2057189941406	831.794677734375	966.2415771484375	-262.4032897949219	845.2500610351562	746.8008422851562	-277.0514221191406	895.291748046875	740.8228149414062	-234.6598052978516	828.96875	1383.886962890625	169.7604370117188	813.0865478515625	1328.199584960938	235.0532531738281	773.294677734375	1068.512817382812	288.4664916992188	765.3397827148438	1054.116455078125	194.7315979003906	909.9877319335938	863.380615234375	287.97900390625	847.8251953125	854.0159301757812	344.9039916992188	797.5993041992188	1006.540466308594	313.3026123046875	945.31494140625	681.5506591796875	307.6194458007812	949.855712890625	754.790283203125	322.3322143554688	888.8807373046875	747.486083984375	355.9705810546875	807.12841796875	1574.809936523438	90.40829467773438	990.2208862304688	1594.73193359375	-14.93015766143799	982.0319213867188	1589.765258789062	77.02405548095703	820.0953369140625	1571.39404296875	-57.51663208007812	797.0031127929688	921.157958984375	-164.9680633544922	833.50927734375	939.0822143554688	208.8591003417969	951.0611572265625	939.6613159179688	136.1127777099609	886.8583374023438	453.9349365234375	-172.7158813476562	491.6187744140625	237.2311706542969	-134.2904663085938	691.7742919921875	336.2342224121094	-166.8049163818359	623.1353149414062	83.32936859130859	-72.64801025390625	570.1386108398438	127.2411422729492	-30.98588752746582	562.9410400390625	137.7994995117188	-143.0890045166016	463.3023071289062	275.1005554199219	-76.04129028320312	942.6632080078125	471.7773742675781	143.8094024658203	922.1040649414062	732.8362426757812	199.9067230224609	882.4393920898438	34.04642486572266	81.13299560546875	960.08935546875	346.5906066894531	120.6649780273438	1080.170776367188	33.84181213378906	32.19535827636719	1023.076721191406	32.36722946166992	-7.950072765350342	986.5438232421875	25.63942337036133	103.812255859375	832.395751953125	33.70665740966797	30.63655853271484	862.8329467773438	654.1372680664062	-218.3631134033203	730.0198974609375	984.2755126953125	104.3995895385742	871.6533203125	597.0509643554688	-175.40576171875	935.9927978515625	930.3779907226562	-114.9426574707031	nan	nan	nan	
143	1.42	729.0823974609375	973.3529663085938	-69.40768432617188	746.2457275390625	1046.789184570312	14.46086311340332	994.845703125	1225.984619140625	29.69799995422363	729.32568359375	1161.173461914062	14.23440265655518	772.7537231445312	1406.49072265625	7.028886795043945	930.5285034179688	1326.016845703125	25.77966690063477	720.5711059570312	1264.796020507812	74.10303497314453	766.9818725585938	1373.670288085938	-98.46872711181641	861.407958984375	1381.8896484375	-140.2338562011719	836.6936645507812	1270.455444335938	-221.905517578125	825.4382934570312	1069.525024414062	-247.554931640625	757.8182373046875	1058.046264648438	-193.1123809814453	882.1445922851562	840.8335571289062	-209.9320220947266	851.118896484375	836.3848876953125	-275.2257385253906	831.3333740234375	966.4058227539062	-263.0390319824219	846.1178588867188	747.1245727539062	-278.3529357910156	896.17919921875	741.3175659179688	-235.9365234375	825.383056640625	1383.593017578125	169.9533843994141	809.2825317382812	1327.953247070312	235.1765441894531	768.9708251953125	1068.2890625	287.889404296875	762.119873046875	1053.863403320312	194.0923461914062	905.9616088867188	863.3137817382812	288.8979187011719	843.115234375	853.82421875	345.06494140625	793.09521484375	1006.317932128906	312.96044921875	941.3115234375	681.514892578125	308.8118591308594	945.5775146484375	754.7491455078125	323.6369934082031	884.2341918945312	747.3507690429688	356.5487365722656	804.1127319335938	1574.792358398438	90.55327606201172	987.3399658203125	1594.268310546875	-14.6442928314209	979.09326171875	1589.291259765625	77.16965484619141	817.2171020507812	1571.23291015625	-57.35542678833008	794.103759765625	921.4502563476562	-165.1893768310547	832.8453979492188	939.372314453125	208.5647277832031	949.8832397460938	939.42138671875	135.1702117919922	875.0228881835938	453.0522766113281	-172.5788269042969	480.3169250488281	234.8842163085938	-132.7278900146484	679.8648071289062	334.6751403808594	-165.9994506835938	611.7073974609375	80.98767852783203	-70.62102508544922	558.91015625	125.2711334228516	-29.02260971069336	551.3760375976562	135.2269287109375	-141.2450866699219	452.0647888183594	273.1894226074219	-74.52140045166016	941.6113891601562	472.0303039550781	143.2297973632812	921.103759765625	733.0253295898438	199.3208312988281	882.5183715820312	34.2554931640625	81.45417022705078	959.263427734375	346.8943786621094	120.1442337036133	1080.2548828125	33.82270050048828	32.06911087036133	1023.141357421875	32.41035461425781	-8.028977394104004	986.5914916992188	25.61443138122559	103.7550277709961	832.4823608398438	33.69717407226562	30.72945594787598	864.2633056640625	654.4627685546875	-219.8934020996094	728.8648071289062	984.8194580078125	104.5799331665039	862.7288818359375	596.3743286132812	-175.2676391601562	933.4528198242188	930.0512084960938	-115.8058547973633	nan	nan	nan	
144	1.43	726.926513671875	974.0945434570312	-69.29927825927734	744.4237060546875	1046.767211914062	14.40503215789795	992.0689086914062	1226.093872070312	29.95425796508789	726.8822631835938	1160.576049804688	14.12944602966309	769.4581298828125	1406.088256835938	7.191483020782471	927.4676513671875	1325.994262695312	26.13483428955078	717.8524780273438	1264.013061523438	73.867431640625	763.9530639648438	1373.257568359375	-98.33518218994141	858.3984985351562	1381.842407226562	-139.895751953125	834.3624267578125	1270.459838867188	-221.7779998779297	824.2798461914062	1069.598999023438	-247.9790344238281	756.5933837890625	1057.540893554688	-193.6705017089844	882.564453125	841.2523803710938	-210.9461212158203	851.5849609375	836.7822875976562	-276.2642517089844	830.8385009765625	966.5779418945312	-263.6964721679688	847.2789916992188	747.4905395507812	-279.6668395996094	897.3947143554688	741.9441528320312	-237.2487640380859	821.732421875	1383.246459960938	170.1380310058594	805.4352416992188	1327.646728515625	235.2837677001953	764.6333618164062	1068.013549804688	287.3224182128906	758.8479614257812	1053.561401367188	193.4738616943359	901.8440551757812	863.1464233398438	289.7462463378906	838.3427734375	853.5475463867188	345.1814880371094	788.5642700195312	1006.033630371094	312.6216430664062	937.1354370117188	681.3604125976562	309.8773193359375	941.1559448242188	754.5846557617188	324.8203735351562	879.4769897460938	747.1116943359375	357.0407104492188	800.9857788085938	1574.744750976562	90.69857788085938	984.2886352539062	1593.823974609375	-14.44803524017334	976.021728515625	1588.819458007812	77.21454620361328	814.1561279296875	1571.030517578125	-57.19673919677734	791.1438598632812	921.6973266601562	-165.3913269042969	832.0303955078125	939.6588745117188	208.2201538085938	948.5663452148438	939.1710205078125	134.1770172119141	863.2721557617188	452.3849792480469	-172.3877410888672	469.2856140136719	232.4345855712891	-131.0599212646484	668.1665649414062	333.1723937988281	-165.1284484863281	600.6080322265625	78.58900451660156	-68.37288665771484	548.02587890625	123.3373718261719	-26.96345138549805	540.1236572265625	132.5570678710938	-139.2556457519531	441.0992736816406	271.1999816894531	-72.93308258056641	940.455810546875	472.2853698730469	142.6244201660156	919.9989624023438	733.2188720703125	198.6910247802734	882.6082763671875	34.49968338012695	81.82353973388672	958.3479614257812	347.2200622558594	119.630256652832	1080.342651367188	33.82353210449219	31.9257984161377	1023.212158203125	32.46304321289062	-8.113242149353027	986.63623046875	25.59318923950195	103.6990432739258	832.5689086914062	33.71060562133789	30.8042049407959	866.1862182617188	654.8187255859375	-221.4696502685547	727.6025390625	985.3556518554688	104.7429504394531	853.7081298828125	595.8328247070312	-175.1260375976562	930.721435546875	929.7396850585938	-116.7058029174805	nan	nan	nan	
145	1.44	724.5888671875	974.7887573242188	-69.19412994384766	742.4473876953125	1046.738525390625	14.35164356231689	989.1947631835938	1226.170166015625	30.12065315246582	724.4033813476562	1159.939697265625	14.03182315826416	766.0462646484375	1405.652221679688	7.367062091827393	924.3211669921875	1325.94775390625	26.43241882324219	715.0677490234375	1263.189819335938	73.63474273681641	760.7620849609375	1372.819091796875	-98.18659973144531	855.2080078125	1381.779174804688	-139.5840148925781	831.7870483398438	1270.419067382812	-221.6407318115234	822.92333984375	1069.643676757812	-248.3989715576172	755.2521362304688	1056.985473632812	-194.2025146484375	883.125244140625	841.7755126953125	-211.9905700683594	852.1790161132812	837.2223510742188	-277.3156127929688	830.2973022460938	966.7619018554688	-264.3704223632812	848.70263671875	747.9073486328125	-280.9834899902344	898.9091796875	742.7127685546875	-238.5971527099609	818.0219116210938	1382.8447265625	170.3083190917969	801.5545043945312	1327.27587890625	235.3706665039062	760.2880859375	1067.677001953125	286.76123046875	755.5073852539062	1053.209716796875	192.8747406005859	897.6422729492188	862.8764038085938	290.5215148925781	833.514892578125	853.1864013671875	345.25830078125	784.0057983398438	1005.686157226562	312.2876281738281	932.7833251953125	681.082763671875	310.8147583007812	936.5966186523438	754.2943115234375	325.8785705566406	874.6138916015625	746.7682495117188	357.44921875	797.756103515625	1574.65869140625	90.85140991210938	981.0668334960938	1593.400512695312	-14.33677959442139	972.8157348632812	1588.360473632812	77.17697906494141	810.9121704101562	1570.787963867188	-57.03822326660156	788.0545654296875	921.910400390625	-165.5858001708984	831.06689453125	939.9371337890625	207.8310546875	947.0975341796875	938.9012451171875	133.1356811523438	851.6444702148438	451.91552734375	-172.1474609375	458.5553588867188	229.8632354736328	-129.2865447998047	656.715087890625	331.70849609375	-164.1913757324219	589.9119873046875	76.15132141113281	-65.90655517578125	537.5337524414062	121.4493637084961	-24.83725738525391	529.2477416992188	129.8035736083984	-137.1098327636719	430.447998046875	269.0927734375	-71.28108215332031	939.1864013671875	472.5372924804688	142.0160522460938	918.7802734375	733.4193725585938	198.0296020507812	882.6793212890625	34.67253494262695	82.14264678955078	957.3238525390625	347.5629272460938	119.1531219482422	1080.427001953125	33.83811187744141	31.78018760681152	1023.282470703125	32.51806640625	-8.189914703369141	986.678466796875	25.56939888000488	103.6517868041992	832.6476440429688	33.73259353637695	30.86986541748047	868.562744140625	655.23193359375	-223.0891571044922	726.201171875	985.8800048828125	104.8848037719727	844.6026611328125	595.4267578125	-174.9827880859375	927.7908325195312	929.4385375976562	-117.6401977539062	nan	nan	nan	
